<svg width="90" height="16" viewBox="0 0 90 16" fill="none" xmlns="http://www.w3.org/2000/svg">
<path d="M5.6298 4.08499C6.18878 4.07066 6.66334 4.12958 7.05351 4.26176C7.44368 4.39394 7.8004 4.58504 8.12368 4.83507C8.24153 4.90832 8.34026 5.00865 8.42148 5.13287C8.5027 5.25868 8.59347 5.37175 8.69699 5.47526C8.72565 5.50552 8.77024 5.54215 8.82917 5.58514C8.88809 5.62973 8.96134 5.64407 9.05053 5.62973C9.19704 5.58514 9.32603 5.49437 9.43591 5.35423C9.5458 5.21409 9.66046 5.10739 9.77831 5.03413C9.98374 4.8717 10.1971 4.72837 10.4185 4.60415C10.6399 4.47994 10.8819 4.37165 11.1463 4.28406C11.2641 4.23947 11.3931 4.20603 11.5317 4.18532C11.6718 4.16303 11.8072 4.13755 11.9393 4.10888C12.0126 4.09455 12.0827 4.08659 12.1496 4.08659H12.3598C12.433 4.05792 12.5365 4.04677 12.6687 4.05314C12.8009 4.06111 12.8964 4.07225 12.9554 4.08659C13.0286 4.10092 13.1385 4.10888 13.2866 4.10888C13.4188 4.13914 13.5478 4.16462 13.6736 4.18532C13.7978 4.20762 13.9204 4.24106 14.0383 4.28406C14.1115 4.31432 14.1816 4.33183 14.2485 4.3398C14.3154 4.34776 14.3839 4.36528 14.4587 4.39553C15.1944 4.71882 15.7025 5.21886 15.9812 5.89568C16.0401 6.01353 16.0847 6.14252 16.1133 6.28107C16.142 6.42121 16.1723 6.5725 16.2009 6.73335C16.2296 6.77794 16.2407 6.82571 16.2344 6.87667C16.2264 6.92923 16.2312 6.97541 16.2455 7.02V7.21906C16.2598 7.27799 16.263 7.34487 16.2567 7.41813C16.2487 7.49138 16.2455 7.56464 16.2455 7.63949V14.1051C16.2455 14.3408 16.2487 14.6211 16.2567 14.9444C16.263 15.2676 16.2009 15.481 16.0687 15.5845C16.0098 15.6291 15.9143 15.6626 15.7821 15.6833C15.6499 15.7056 15.5098 15.7167 15.3633 15.7167C15.2167 15.7167 15.0718 15.7088 14.9333 15.6944C14.7931 15.6801 14.6944 15.6498 14.6355 15.6068C14.5479 15.5623 14.489 15.4747 14.4587 15.3425C14.4284 15.2549 14.4221 15.1625 14.4364 15.067C14.4507 14.9714 14.4428 14.8791 14.4141 14.7915C14.3998 14.7182 14.395 14.6338 14.403 14.5383C14.4109 14.4427 14.4141 14.3503 14.4141 14.2628V9.05523C14.4141 8.56952 14.403 8.11087 14.3807 7.67612C14.3584 7.24295 14.2517 6.87827 14.0606 6.58365C13.8392 6.23011 13.5016 5.97372 13.0446 5.81128C12.957 5.78262 12.8646 5.76351 12.769 5.75554C12.6735 5.74917 12.5732 5.73006 12.4712 5.6998C12.4123 5.68547 12.3168 5.68069 12.1846 5.68866C12.0524 5.69662 11.9632 5.70777 11.9202 5.7221C11.847 5.73643 11.7737 5.74121 11.6989 5.73325C11.6256 5.72688 11.5524 5.73643 11.4775 5.76669C11.2721 5.81128 11.073 5.8702 10.8819 5.94346C10.1175 6.26674 9.60154 6.83368 9.33718 7.64267C9.26392 7.8927 9.22252 8.17935 9.21615 8.50263C9.20818 8.82591 9.205 9.15715 9.205 9.49636V15.0686C9.205 15.2533 9.16837 15.3966 9.09512 15.4985C9.02186 15.6164 8.89605 15.6833 8.71928 15.6976C8.54251 15.7119 8.35937 15.7199 8.16827 15.7199C7.91825 15.7199 7.73352 15.6912 7.61726 15.6323C7.48508 15.5591 7.40705 15.438 7.38475 15.2676C7.36246 15.0988 7.35131 14.9109 7.35131 14.7055V8.96765C7.35131 8.49626 7.33698 8.05991 7.30672 7.65382C7.27646 7.24932 7.17454 6.90056 6.99777 6.60595C6.83534 6.34159 6.6522 6.14571 6.44676 6.02149C6.24133 5.89728 5.96105 5.79695 5.60751 5.72369C5.54858 5.70936 5.48648 5.7014 5.41959 5.7014H5.20938C4.8861 5.7014 4.60263 5.73802 4.36057 5.81128C4.11851 5.88454 3.90033 5.98009 3.70923 6.09793C2.95915 6.55339 2.4591 7.23817 2.20908 8.15069C2.15016 8.34179 2.12468 8.55837 2.13264 8.80202C2.1406 9.04409 2.14379 9.28456 2.14379 9.51866V15.0351C2.14379 15.2406 2.0992 15.403 2.01161 15.5208C1.93835 15.6244 1.82688 15.6833 1.68036 15.6976C1.53385 15.7119 1.37938 15.7199 1.21694 15.7199H0.885699C0.79811 15.6912 0.712115 15.6689 0.632489 15.653C0.55127 15.6387 0.4812 15.5941 0.422277 15.5208C0.349021 15.4333 0.312393 15.3186 0.312393 15.1785V4.91151C0.312393 4.77137 0.341058 4.6583 0.399982 4.56912C0.444572 4.48153 0.509865 4.42261 0.599046 4.39235C0.716892 4.34776 0.904809 4.32546 1.1612 4.32546C1.4176 4.32546 1.60552 4.34776 1.72336 4.39235C1.84121 4.45127 1.92243 4.52453 1.96542 4.61371C1.99409 4.68696 2.0132 4.77615 2.02116 4.87807C2.02912 4.98158 2.03868 5.07713 2.0546 5.16472C2.06894 5.25231 2.0992 5.32716 2.14219 5.38608C2.18678 5.445 2.26004 5.47367 2.36355 5.47367C2.39222 5.445 2.42566 5.42908 2.46229 5.42908C2.49892 5.42908 2.53236 5.41474 2.56102 5.38449C2.64861 5.31123 2.73302 5.23798 2.81423 5.16313C2.89545 5.08987 2.97986 5.01662 3.06744 4.94177C3.39073 4.70608 3.7586 4.50064 4.17106 4.32387C4.31757 4.26495 4.46567 4.22514 4.61218 4.20284C4.7587 4.18055 4.91317 4.1471 5.07561 4.1041C5.1632 4.1041 5.25556 4.10092 5.35111 4.09296C5.44666 4.08499 5.53903 4.08181 5.62662 4.08181L5.6298 4.08499Z" fill="url(#paint0_linear_2_107)"/>
<path d="M28.4028 9.57917C28.4314 9.72568 28.4362 9.89131 28.4139 10.076C28.3916 10.2608 28.3438 10.3882 28.2706 10.4614C28.1973 10.5203 28.0906 10.5602 27.9505 10.5825C27.8103 10.6048 27.6527 10.6159 27.4759 10.6159C27.2991 10.6159 27.1224 10.6127 26.9456 10.6048C26.7688 10.5984 26.6144 10.5936 26.4822 10.5936H20.8335C20.7157 10.5936 20.5978 10.5968 20.48 10.6048C20.3622 10.6127 20.2666 10.6382 20.1933 10.6828C20.1344 10.713 20.0755 10.7704 20.0166 10.8596C19.9863 10.9041 19.9577 10.9663 19.929 11.0475C19.8987 11.1287 19.8987 11.2051 19.929 11.28C19.9433 11.3532 19.9513 11.4201 19.9513 11.479C19.9513 11.538 19.9592 11.5969 19.9736 11.6558C20.0022 11.7737 20.0325 11.8947 20.0612 12.0205C20.0898 12.1463 20.1344 12.2673 20.1933 12.3852C20.531 13.1799 21.0899 13.7468 21.8703 14.0844C21.9579 14.129 22.0534 14.1656 22.1569 14.1943C22.2604 14.2245 22.3623 14.2532 22.4659 14.2819C22.5105 14.2962 22.5837 14.3042 22.6872 14.3042C22.8927 14.3631 23.165 14.3918 23.5042 14.3918C23.8434 14.3918 24.1141 14.3631 24.3211 14.3042C24.5266 14.2452 24.7145 14.1831 24.8833 14.1162C25.0521 14.0494 25.2098 13.965 25.3579 13.863C25.5203 13.7611 25.6589 13.6385 25.7767 13.4984C25.8945 13.3582 25.9981 13.2085 26.0857 13.0461C26.1732 12.8996 26.2513 12.7451 26.3182 12.5827C26.385 12.4202 26.4981 12.304 26.6605 12.2291C26.7195 12.2005 26.815 12.1782 26.9472 12.1622C27.0794 12.1479 27.2116 12.1447 27.3437 12.1511C27.4759 12.159 27.6017 12.1702 27.7196 12.1845C27.8374 12.1989 27.9186 12.2291 27.9616 12.2721C28.1081 12.3756 28.1448 12.5444 28.0715 12.7801C27.9537 13.1767 27.7992 13.5302 27.6081 13.8392C27.3135 14.3105 26.9791 14.6959 26.6048 14.9985C26.229 15.2995 25.756 15.5463 25.1811 15.7374C25.0346 15.7964 24.8865 15.8362 24.74 15.8585C24.5935 15.8808 24.439 15.9062 24.2766 15.9365C24.2033 15.9508 24.1332 15.9588 24.0663 15.9588C23.9995 15.9588 23.931 15.9652 23.8561 15.9811H23.6348C23.5615 15.9954 23.4771 16.0034 23.3816 16.0034C23.286 16.0034 23.208 15.9954 23.1506 15.9811H22.9516C22.8783 15.9668 22.8114 15.9588 22.7525 15.9588C22.6936 15.9588 22.6347 15.9508 22.5757 15.9365C22.5025 15.9222 22.4213 15.911 22.3337 15.9031C22.2461 15.8951 22.1649 15.8839 22.0916 15.8696C21.9594 15.8393 21.8273 15.8075 21.6951 15.7709C21.5629 15.7342 21.4371 15.6928 21.3193 15.6498C21.2603 15.6212 21.2094 15.6021 21.1648 15.5941C21.1202 15.5877 21.0692 15.5686 21.0103 15.5384C20.7889 15.4349 20.5548 15.3106 20.3048 15.1625C19.878 14.8838 19.5133 14.5415 19.2124 14.137C18.9114 13.7325 18.6566 13.2802 18.4511 12.7801C18.3779 12.6177 18.3221 12.4489 18.2855 12.2721C18.2489 12.0953 18.2011 11.9186 18.1422 11.7418C18.1279 11.6829 18.1199 11.6319 18.1199 11.5873C18.1199 11.5427 18.1119 11.4838 18.0976 11.4106C18.0673 11.2927 18.045 11.1685 18.0307 11.0347C18.0164 10.9026 17.9941 10.7704 17.9638 10.6382V10.3292C17.9495 10.2703 17.9383 10.1859 17.9304 10.076C17.9224 9.96615 17.9272 9.87379 17.9415 9.80053V9.55847C17.9702 9.48521 17.9813 9.40718 17.975 9.32596C17.967 9.24474 17.9718 9.1683 17.9861 9.09346C18.045 8.85776 18.0928 8.62207 18.1294 8.38797C18.1661 8.15228 18.2282 7.93251 18.3174 7.72548C18.3906 7.56305 18.4607 7.39902 18.5276 7.22862C18.5945 7.05981 18.6709 6.89419 18.7601 6.73175C19.0834 6.21737 19.4512 5.77147 19.8637 5.39723C20.2746 5.02139 20.7826 4.70926 21.3861 4.45924C21.5629 4.38598 21.7429 4.33024 21.926 4.29361C22.1091 4.25699 22.305 4.21558 22.5105 4.17258C22.5837 4.15825 22.6506 4.1471 22.7095 4.13914C22.7684 4.13118 22.8337 4.12799 22.9086 4.12799C22.9372 4.11366 22.9755 4.11366 23.0185 4.12799C23.0631 4.14233 23.0997 4.13596 23.1283 4.1057C23.7462 4.09137 24.2829 4.15347 24.74 4.29361C25.1954 4.43376 25.6079 4.62167 25.9758 4.85577C26.049 4.88603 26.1079 4.92584 26.1525 4.9768C26.1971 5.02776 26.2481 5.06917 26.307 5.09783C26.4249 5.18542 26.5459 5.28894 26.6717 5.40678C26.7959 5.52463 26.9042 5.64247 26.9918 5.76032C27.2275 6.06927 27.425 6.36388 27.5874 6.64257C27.6909 6.80501 27.7705 6.98178 27.8295 7.17288C27.8884 7.36398 27.9537 7.55509 28.0285 7.74619C28.1018 7.93729 28.1575 8.13635 28.1941 8.34179C28.2308 8.54722 28.2785 8.75425 28.3375 8.95968C28.3518 9.0632 28.3629 9.16512 28.3709 9.26863C28.3773 9.37215 28.3884 9.47407 28.4044 9.57758L28.4028 9.57917ZM26.2624 8.8291C26.307 8.77017 26.3436 8.69373 26.3723 8.59659C26.401 8.50104 26.401 8.4023 26.3723 8.29879C26.2847 7.97551 26.1589 7.67293 25.9965 7.39424C25.791 7.05663 25.5617 6.76838 25.3117 6.53428C25.0617 6.29859 24.7384 6.10112 24.3403 5.93868C24.2367 5.91002 24.1348 5.88294 24.0313 5.86224C23.9278 5.83995 23.8179 5.81447 23.7001 5.78421C23.5822 5.75554 23.458 5.73962 23.3242 5.73962H22.9484C22.9038 5.76988 22.8528 5.78102 22.7939 5.77306C22.735 5.76669 22.684 5.76988 22.6394 5.78421C22.5216 5.81447 22.4069 5.83995 22.2971 5.86224C22.1872 5.88454 22.0805 5.91002 21.977 5.93868C21.5502 6.11545 21.2078 6.33681 20.9514 6.60117C20.6934 6.86553 20.4625 7.19677 20.2555 7.5949C20.2109 7.66815 20.1679 7.76052 20.1233 7.8704C20.0787 7.98029 20.0421 8.10291 20.0134 8.23509C19.9831 8.36727 19.9768 8.49308 19.9911 8.61092C20.0054 8.72877 20.058 8.81636 20.1456 8.87528C20.2634 8.96287 20.4657 9.00427 20.7523 8.99631C21.039 8.98835 21.2858 8.98516 21.4912 8.98516H24.8451C25.0664 8.98516 25.3308 8.98835 25.6397 8.99631C25.9487 9.00427 26.1541 8.94854 26.2576 8.83069L26.2624 8.8291Z" fill="url(#paint1_linear_2_107)"/>
<path d="M39.7017 9.57917C39.7303 9.72568 39.7351 9.89131 39.7128 10.076C39.6905 10.2608 39.6427 10.3882 39.5695 10.4614C39.4962 10.5203 39.3895 10.5602 39.2494 10.5825C39.1092 10.6048 38.9516 10.6159 38.7748 10.6159C38.5981 10.6159 38.4213 10.6127 38.2445 10.6048C38.0677 10.5984 37.9133 10.5936 37.7811 10.5936H32.1324C32.0146 10.5936 31.8967 10.5968 31.7789 10.6048C31.6611 10.6127 31.5655 10.6382 31.4922 10.6828C31.4333 10.713 31.3744 10.7704 31.3155 10.8596C31.2852 10.9041 31.2566 10.9663 31.2279 11.0475C31.1976 11.1287 31.1976 11.2051 31.2279 11.28C31.2422 11.3532 31.2502 11.4201 31.2502 11.479C31.2502 11.538 31.2581 11.5969 31.2725 11.6558C31.3011 11.7737 31.3314 11.8947 31.3601 12.0205C31.3887 12.1463 31.4333 12.2673 31.4922 12.3852C31.8299 13.1799 32.3888 13.7468 33.1692 14.0844C33.2568 14.129 33.3523 14.1656 33.4558 14.1943C33.5593 14.2245 33.6613 14.2532 33.7648 14.2819C33.8094 14.2962 33.8826 14.3042 33.9861 14.3042C34.1916 14.3631 34.4639 14.3918 34.8031 14.3918C35.1423 14.3918 35.413 14.3631 35.62 14.3042C35.8255 14.2452 36.0134 14.1831 36.1822 14.1162C36.351 14.0494 36.5087 13.965 36.6568 13.863C36.8192 13.7611 36.9578 13.6385 37.0756 13.4984C37.1935 13.3582 37.297 13.2085 37.3846 13.0461C37.4721 12.8996 37.5502 12.7451 37.6171 12.5827C37.6839 12.4202 37.797 12.304 37.9595 12.2291C38.0184 12.2005 38.1139 12.1782 38.2461 12.1622C38.3783 12.1479 38.5105 12.1447 38.6426 12.1511C38.7748 12.159 38.9006 12.1702 39.0185 12.1845C39.1363 12.1989 39.2175 12.2291 39.2605 12.2721C39.4071 12.3756 39.4437 12.5444 39.3704 12.7801C39.2526 13.1767 39.0981 13.5302 38.907 13.8392C38.6124 14.3105 38.278 14.6959 37.9037 14.9985C37.5279 15.2995 37.0549 15.5463 36.48 15.7374C36.3335 15.7964 36.1854 15.8362 36.0389 15.8585C35.8924 15.8808 35.7379 15.9062 35.5755 15.9365C35.5022 15.9508 35.4321 15.9588 35.3652 15.9588C35.2984 15.9588 35.2299 15.9652 35.155 15.9811H34.9337C34.8604 15.9954 34.776 16.0034 34.6805 16.0034C34.5849 16.0034 34.5069 15.9954 34.4495 15.9811H34.2505C34.1772 15.9668 34.1103 15.9588 34.0514 15.9588C33.9925 15.9588 33.9336 15.9508 33.8747 15.9365C33.8014 15.9222 33.7202 15.911 33.6326 15.9031C33.545 15.8951 33.4638 15.8839 33.3905 15.8696C33.2583 15.8393 33.1262 15.8075 32.994 15.7709C32.8618 15.7342 32.736 15.6928 32.6182 15.6498C32.5592 15.6212 32.5083 15.6021 32.4637 15.5941C32.4191 15.5877 32.3681 15.5686 32.3092 15.5384C32.0878 15.4349 31.8537 15.3106 31.6037 15.1625C31.1769 14.8838 30.8122 14.5415 30.5113 14.137C30.2103 13.7325 29.9555 13.2802 29.75 12.7801C29.6768 12.6177 29.621 12.4489 29.5844 12.2721C29.5478 12.0953 29.5 11.9186 29.4411 11.7418C29.4268 11.6829 29.4188 11.6319 29.4188 11.5873C29.4188 11.5427 29.4108 11.4838 29.3965 11.4106C29.3662 11.2927 29.3439 11.1685 29.3296 11.0347C29.3153 10.9026 29.293 10.7704 29.2627 10.6382V10.3292C29.2484 10.2703 29.2372 10.1859 29.2293 10.076C29.2213 9.96615 29.2261 9.87379 29.2404 9.80053V9.55847C29.2691 9.48521 29.2802 9.40718 29.2739 9.32596C29.2659 9.24474 29.2707 9.1683 29.285 9.09346C29.3439 8.85776 29.3917 8.62207 29.4283 8.38797C29.465 8.15228 29.5271 7.93251 29.6163 7.72548C29.6895 7.56305 29.7596 7.39902 29.8265 7.22862C29.8934 7.05981 29.9698 6.89419 30.059 6.73175C30.3823 6.21737 30.7501 5.77147 31.1626 5.39723C31.5735 5.02139 32.0815 4.70926 32.685 4.45924C32.8618 4.38598 33.0418 4.33024 33.2249 4.29361C33.408 4.25699 33.6039 4.21558 33.8094 4.17258C33.8826 4.15825 33.9495 4.1471 34.0084 4.13914C34.0673 4.13118 34.1326 4.12799 34.2075 4.12799C34.2362 4.11366 34.2744 4.11366 34.3174 4.12799C34.362 4.14233 34.3986 4.13596 34.4273 4.1057C35.0451 4.09137 35.5818 4.15347 36.0389 4.29361C36.4943 4.43376 36.9068 4.62167 37.2747 4.85577C37.3479 4.88603 37.4069 4.92584 37.4514 4.9768C37.496 5.02776 37.547 5.06917 37.6059 5.09783C37.7238 5.18542 37.8448 5.28894 37.9706 5.40678C38.0948 5.52463 38.2031 5.64247 38.2907 5.76032C38.5264 6.06927 38.7239 6.36388 38.8863 6.64257C38.9898 6.80501 39.0694 6.98178 39.1284 7.17288C39.1873 7.36398 39.2526 7.55509 39.3274 7.74619C39.4007 7.93729 39.4564 8.13635 39.493 8.34179C39.5297 8.54722 39.5774 8.75425 39.6364 8.95968C39.6507 9.0632 39.6619 9.16512 39.6698 9.26863C39.6762 9.37215 39.6873 9.47407 39.7033 9.57758L39.7017 9.57917ZM37.5613 8.8291C37.6059 8.77017 37.6425 8.69373 37.6712 8.59659C37.6999 8.50104 37.6999 8.4023 37.6712 8.29879C37.5836 7.97551 37.4578 7.67293 37.2954 7.39424C37.0899 7.05663 36.8606 6.76838 36.6106 6.53428C36.3606 6.29859 36.0373 6.10112 35.6392 5.93868C35.5356 5.91002 35.4337 5.88294 35.3302 5.86224C35.2267 5.83995 35.1168 5.81447 34.999 5.78421C34.8811 5.75554 34.7569 5.73962 34.6231 5.73962H34.2473C34.2027 5.76988 34.1518 5.78102 34.0928 5.77306C34.0339 5.76669 33.9829 5.76988 33.9384 5.78421C33.8205 5.81447 33.7058 5.83995 33.596 5.86224C33.4861 5.88454 33.3794 5.91002 33.2759 5.93868C32.8491 6.11545 32.5067 6.33681 32.2503 6.60117C31.9923 6.86553 31.7614 7.19677 31.5544 7.5949C31.5098 7.66815 31.4668 7.76052 31.4222 7.8704C31.3776 7.98029 31.341 8.10291 31.3123 8.23509C31.282 8.36727 31.2757 8.49308 31.29 8.61092C31.3043 8.72877 31.3569 8.81636 31.4445 8.87528C31.5623 8.96287 31.7646 9.00427 32.0512 8.99631C32.3379 8.98835 32.5847 8.98516 32.7901 8.98516H36.144C36.3653 8.98516 36.6297 8.98835 36.9387 8.99631C37.2476 9.00427 37.453 8.94854 37.5565 8.83069L37.5613 8.8291Z" fill="url(#paint2_linear_2_107)"/>
<path d="M41.9089 0.00179088H42.5156C42.729 0.00179088 42.8867 0.0527514 42.9902 0.156265C43.0635 0.259778 43.1033 0.395142 43.1112 0.563949C43.1176 0.732755 43.1224 0.906339 43.1224 1.08311V15.0304C43.1224 15.2358 43.0858 15.3982 43.0125 15.5161C42.9679 15.5893 42.9058 15.6339 42.8246 15.6483C42.7434 15.6626 42.6446 15.6849 42.5268 15.7151H42.2178C42.0554 15.7151 41.9009 15.712 41.7544 15.704C41.6079 15.696 41.4964 15.6483 41.4232 15.5607C41.3499 15.4428 41.3085 15.2963 41.3021 15.1195C41.2942 14.9428 41.291 14.7596 41.291 14.5685V1.19299C41.291 1.03056 41.2878 0.858564 41.2798 0.673832C41.2719 0.490693 41.3053 0.347367 41.3786 0.243853C41.4375 0.156265 41.5474 0.0830091 41.7098 0.0224936C41.7385 0.00816094 41.7719 0.00497591 41.8086 0.011346C41.8452 0.0193085 41.8786 0.014531 41.9073 0.000198364L41.9089 0.00179088Z" fill="url(#paint3_linear_2_107)"/>
<path d="M55.5456 14.8982C55.5902 15.1339 55.5679 15.3282 55.4787 15.4826C55.3895 15.6371 55.2733 15.7502 55.1252 15.825C55.0519 15.8537 54.9739 15.8696 54.8927 15.8696C54.8114 15.8696 54.727 15.8839 54.6395 15.9142C54.3162 15.9875 53.9961 15.9699 53.6792 15.8585C53.3623 15.7486 53.1457 15.6116 53.0278 15.4508C52.9546 15.3473 52.8877 15.2262 52.8288 15.0861C52.7698 14.9459 52.6966 14.8329 52.6074 14.7437C52.5771 14.715 52.5453 14.6848 52.5087 14.6561C52.472 14.6274 52.4243 14.6195 52.3653 14.6338C52.2029 14.6784 52.0532 14.7596 51.9131 14.8759C51.7729 14.9937 51.6376 15.0972 51.5054 15.1848C51.3143 15.3027 51.1088 15.4094 50.8875 15.5049C50.6661 15.6005 50.432 15.6849 50.182 15.7581C50.0355 15.8027 49.8762 15.8314 49.7074 15.8457C49.5386 15.8601 49.373 15.8823 49.2106 15.9126C49.1373 15.9269 49.0736 15.9349 49.0227 15.9349H48.857C48.6946 15.9636 48.5401 15.9636 48.3936 15.9349H48.1945C48.1213 15.9206 48.048 15.9126 47.9732 15.9126C47.8983 15.9126 47.833 15.8983 47.7741 15.868C47.7152 15.8537 47.6674 15.8489 47.6308 15.8569C47.5942 15.8648 47.5528 15.8601 47.5098 15.8457C47.3919 15.8155 47.2741 15.79 47.1562 15.7693C47.0384 15.747 46.9285 15.7135 46.825 15.6705C46.3838 15.4794 46.0271 15.2629 45.7548 15.0192C45.4825 14.7771 45.2579 14.4348 45.0812 13.9936C44.949 13.6703 44.8821 13.2802 44.8821 12.8247V12.3613C44.8964 12.288 44.9076 12.21 44.9156 12.1288C44.9235 12.0476 44.9347 11.9632 44.949 11.8756C45.0079 11.7147 45.0668 11.5523 45.1258 11.3899C45.1847 11.2274 45.2579 11.0809 45.3471 10.9487C45.6115 10.5219 45.973 10.2066 46.4284 9.9996C46.8839 9.79416 47.384 9.60943 47.9286 9.44859C48.134 9.38966 48.3474 9.34667 48.5688 9.31641C48.7901 9.28774 49.0099 9.24952 49.2313 9.20652C49.3348 9.17786 49.4335 9.16193 49.5291 9.16193C49.6246 9.16193 49.7313 9.1476 49.8492 9.11734C49.9511 9.08868 50.0546 9.06957 50.1581 9.06161C50.2616 9.05524 50.3715 9.03613 50.4894 9.00587C50.8572 8.91828 51.2028 8.84025 51.5261 8.77495C51.8494 8.70807 52.1074 8.54245 52.2985 8.27809C52.386 8.16024 52.4609 8.01055 52.5198 7.82581C52.5787 7.64267 52.5787 7.44043 52.5198 7.21907C52.4322 6.86553 52.3032 6.58684 52.1344 6.37981C51.9656 6.17438 51.7267 6.01194 51.4178 5.89409C51.241 5.82084 51.0324 5.76988 50.7887 5.73962C50.5467 5.71095 50.2919 5.69503 50.0275 5.69503C49.7632 5.69503 49.5052 5.70936 49.2552 5.73962C49.0051 5.76988 48.7917 5.81287 48.615 5.8718C48.3649 5.95939 48.1213 6.08519 47.8872 6.24763C47.7693 6.33522 47.6626 6.44988 47.5671 6.59002C47.4715 6.73016 47.3871 6.88145 47.3139 7.0423C47.2693 7.16014 47.2295 7.28436 47.1929 7.41813C47.1562 7.55031 47.0862 7.65382 46.9826 7.72708C46.9237 7.77167 46.825 7.80511 46.6848 7.82581C46.5447 7.84811 46.4014 7.85926 46.2549 7.85926C46.1083 7.85926 45.9634 7.84811 45.8249 7.82581C45.6847 7.80352 45.586 7.77008 45.5271 7.72708C45.4682 7.68249 45.4236 7.60923 45.3949 7.50572C45.3646 7.4038 45.3646 7.29232 45.3949 7.17448C45.4395 6.98337 45.4873 6.80342 45.5382 6.63302C45.5892 6.46421 45.6513 6.29859 45.7261 6.13616C46.0048 5.62177 46.3584 5.22046 46.7852 4.93381C47.212 4.64715 47.7407 4.41465 48.3745 4.23788C48.521 4.20921 48.6723 4.18692 48.8268 4.17099C48.9812 4.15666 49.1389 4.13436 49.3013 4.10411C49.3603 4.08977 49.4558 4.085 49.588 4.09296C49.7202 4.10092 49.8014 4.08977 49.8301 4.05952C50.8588 4.04518 51.757 4.16303 52.523 4.41305C53.2874 4.66308 53.8257 5.14083 54.1346 5.84791C54.2668 6.14253 54.3448 6.48492 54.3671 6.87349C54.3894 7.26366 54.4006 7.67134 54.4006 8.09813V12.9744C54.4006 13.1799 54.4069 13.3789 54.4229 13.57C54.4372 13.7611 54.4818 13.9156 54.555 14.0334C54.6283 14.137 54.7239 14.2102 54.8417 14.2532C54.9739 14.3121 55.0997 14.3519 55.2175 14.3742C55.3354 14.3965 55.423 14.4666 55.4819 14.5844C55.5106 14.629 55.5265 14.672 55.5265 14.7166C55.5265 14.7612 55.5329 14.8201 55.5488 14.8934L55.5456 14.8982ZM52.3908 12.4489C52.4784 12.2435 52.5262 12.0046 52.5341 11.7323C52.5421 11.4599 52.5453 11.1765 52.5453 10.8834C52.5453 10.721 52.5373 10.5745 52.523 10.4423C52.5087 10.3101 52.4497 10.2066 52.3462 10.1334C52.3016 10.1047 52.1997 10.0888 52.0373 10.0888C52.007 10.119 51.9561 10.1334 51.8828 10.1334C51.8096 10.1334 51.7427 10.1477 51.6837 10.178C51.5659 10.2082 51.4337 10.2369 51.2872 10.2655C51.1407 10.2958 50.9926 10.3245 50.8461 10.3531C50.8015 10.3531 50.7537 10.3563 50.7028 10.3643C50.6502 10.3722 50.5961 10.3754 50.5371 10.3754C50.3158 10.4344 50.0769 10.4678 49.8205 10.4742C49.5625 10.4821 49.3236 10.514 49.1039 10.5729C48.986 10.6032 48.8793 10.6286 48.7838 10.6509C48.6882 10.6732 48.5815 10.6987 48.4637 10.729C48.228 10.8022 48.0082 10.8946 47.8012 11.0045C47.5958 11.1144 47.419 11.2513 47.2709 11.4122C47.1244 11.5746 47.0129 11.7689 46.9396 11.9966C46.8664 12.2243 46.8361 12.5014 46.8521 12.8247C46.8521 12.9712 46.8775 13.1082 46.9301 13.2324C46.981 13.3582 47.0432 13.4713 47.118 13.5748C47.2358 13.7372 47.3903 13.8726 47.5814 13.9825C47.7725 14.0924 47.978 14.1847 48.1993 14.258C48.2726 14.2723 48.3458 14.2803 48.4207 14.2803C48.4955 14.2803 48.5672 14.2882 48.642 14.3026C48.7456 14.3328 48.8745 14.3503 49.0274 14.3583C49.1819 14.3663 49.3109 14.3551 49.4144 14.3249C49.502 14.2962 49.5912 14.2851 49.6788 14.2914C49.7664 14.2994 49.8555 14.2882 49.9431 14.258C50.061 14.2293 50.1756 14.207 50.2855 14.1911C50.3954 14.1768 50.5021 14.1465 50.6056 14.1035C51.0324 13.9267 51.3955 13.7133 51.6981 13.4633C51.9991 13.2133 52.2316 12.8757 52.394 12.4489H52.3908Z" fill="url(#paint4_linear_2_107)"/>
<path d="M62.1434 4.12801C63.0702 4.09934 63.8123 4.22356 64.3729 4.50384C64.9319 4.78412 65.381 5.20295 65.7186 5.76193C65.8062 5.90844 65.8762 6.06769 65.9288 6.2365C65.9798 6.4053 66.0275 6.57889 66.0721 6.75566C66.1454 7.03594 66.19 7.33692 66.2043 7.6602C66.2186 7.98349 66.2266 8.31473 66.2266 8.65393V14.4587C66.2266 14.7087 66.2234 14.9587 66.2155 15.2087C66.2075 15.4588 66.1088 15.6212 65.9177 15.6944C65.8444 15.7247 65.7664 15.7422 65.6851 15.7502C65.6039 15.7566 65.5195 15.7613 65.4319 15.7613C65.2408 15.7613 65.0561 15.7581 64.8809 15.7502C64.7042 15.7422 64.5799 15.6801 64.5051 15.5623C64.4318 15.4588 64.3952 15.3266 64.3952 15.1641V9.18424C64.3952 8.78611 64.3872 8.39435 64.3729 8.00419C64.3586 7.61402 64.2917 7.27959 64.1738 7.0009C64.056 6.70629 63.8792 6.46741 63.6435 6.28427C63.4078 6.10113 63.1355 5.95781 62.8266 5.85429C62.739 5.82563 62.6466 5.80652 62.5511 5.79855C62.4555 5.79218 62.3632 5.77307 62.2756 5.74282C62.2023 5.72848 62.0877 5.7253 61.9332 5.73167C61.7787 5.73963 61.672 5.75078 61.6131 5.76511C61.5542 5.79537 61.5032 5.80652 61.4586 5.79855C61.414 5.79218 61.3631 5.79537 61.3041 5.8097C61.113 5.85429 60.9331 5.90207 60.7627 5.95303C60.5939 6.00558 60.4346 6.07406 60.2881 6.16324C60.2292 6.1935 60.1782 6.22216 60.1336 6.25083C60.089 6.28109 60.0381 6.30975 59.9792 6.33842C59.4632 6.70629 59.0889 7.2573 58.8532 7.99304C58.8087 8.11089 58.78 8.23192 58.7657 8.35773C58.7513 8.48354 58.729 8.60457 58.6988 8.72241C58.6685 8.79567 58.6622 8.86574 58.6765 8.93262C58.6908 8.99951 58.6829 9.06162 58.6542 9.12054V9.58396C58.6399 9.62855 58.6351 9.67951 58.643 9.73844C58.651 9.79736 58.6542 9.86425 58.6542 9.9375V15.1562C58.6542 15.325 58.6176 15.4619 58.5443 15.5639C58.4711 15.6817 58.3421 15.7438 58.1589 15.7518C57.9742 15.7581 57.7879 15.7629 57.5968 15.7629C57.4789 15.7629 57.369 15.755 57.2655 15.7406C57.162 15.7263 57.0744 15.6897 57.0012 15.6307C56.8833 15.5575 56.8244 15.4173 56.8244 15.2119V4.92267C56.8244 4.79049 56.8531 4.68698 56.912 4.61372C56.9566 4.52613 57.0298 4.46721 57.1333 4.43695C57.1923 4.42262 57.2767 4.40829 57.3865 4.39236C57.4964 4.37803 57.6111 4.37007 57.7289 4.37007C57.8468 4.37007 57.9614 4.37803 58.0713 4.39236C58.1812 4.4067 58.2592 4.42899 58.3038 4.45925C58.4647 4.56276 58.5395 4.69176 58.5252 4.84464C58.5109 4.99911 58.5316 5.1727 58.5921 5.3638C58.6207 5.45139 58.6797 5.52623 58.7688 5.58516C58.9456 5.59949 59.0889 5.5342 59.1988 5.38609C59.3087 5.23958 59.4234 5.12174 59.5412 5.03255C59.7467 4.88604 59.9569 4.74909 60.1703 4.62487C60.3837 4.50065 60.6305 4.39396 60.9092 4.30478C61.027 4.26018 61.156 4.23152 61.2946 4.21719C61.4347 4.20285 61.5701 4.18056 61.7023 4.1503C61.7755 4.13597 61.8488 4.12801 61.9236 4.12801H62.145H62.1434Z" fill="url(#paint5_linear_2_107)"/>
<path d="M73.0458 4.085C74.1334 4.07067 75.0428 4.22833 75.7705 4.55957C76.4983 4.89082 77.0764 5.38768 77.5032 6.04857C77.6943 6.34319 77.8567 6.7031 77.9889 7.12989C78.0176 7.20315 78.0399 7.2987 78.0558 7.41654C78.0701 7.53439 78.0622 7.6379 78.0335 7.72549C77.9889 7.79875 77.9157 7.86563 77.8121 7.92456C77.7676 7.95481 77.7246 7.96596 77.68 7.958C77.6354 7.95163 77.5844 7.95481 77.5255 7.96915C77.4666 7.98348 77.4076 7.98826 77.3487 7.98029C77.2898 7.97392 77.2309 7.96915 77.172 7.96915C77.0095 7.96915 76.855 7.96596 76.7085 7.958C76.562 7.95163 76.4362 7.91022 76.3327 7.83697C76.2149 7.74938 76.1336 7.62357 76.0906 7.46113C76.0461 7.2987 75.9871 7.16015 75.9139 7.0423C75.6925 6.6601 75.4059 6.35911 75.0539 6.13775C74.9361 6.0645 74.8119 6.00239 74.6781 5.94984C74.5459 5.89888 74.4058 5.8511 74.2592 5.80651C74.0538 5.74759 73.7815 5.71415 73.4423 5.70778C73.1031 5.69981 72.8244 5.73326 72.603 5.80651C72.4995 5.83677 72.404 5.85906 72.3164 5.8734C72.2288 5.88773 72.1316 5.91002 72.0297 5.94028C71.6475 6.10272 71.3083 6.32249 71.0153 6.60277C70.7207 6.88305 70.4929 7.2127 70.3305 7.5965C70.2716 7.72868 70.2206 7.86563 70.176 8.00418C70.1314 8.14432 70.0885 8.29561 70.0439 8.45646L69.9117 9.05206C69.8973 9.12531 69.8926 9.20653 69.9005 9.29412C69.9085 9.38171 69.8973 9.46293 69.8671 9.53618V9.71295C69.8528 9.77187 69.8416 9.86742 69.8336 9.9996C69.8257 10.1318 69.8368 10.2273 69.8671 10.2863C69.8814 10.3595 69.8814 10.4328 69.8671 10.5076C69.8528 10.5809 69.8528 10.6541 69.8671 10.729C69.8814 10.7879 69.8894 10.8914 69.8894 11.0379C69.9181 11.1558 69.9451 11.28 69.9674 11.4138C69.9897 11.5459 70.0152 11.6717 70.0455 11.7896C70.2063 12.261 70.3942 12.6687 70.6076 13.0142C70.821 13.3598 71.1188 13.6576 71.501 13.9076C71.6332 13.9809 71.7686 14.0478 71.9087 14.1067C72.0488 14.1656 72.1985 14.2245 72.361 14.2835C72.4342 14.2978 72.4931 14.3058 72.5377 14.3058C72.5823 14.3058 72.6413 14.3137 72.7145 14.3281C72.7591 14.3424 72.8324 14.3504 72.9359 14.3504H73.1779C73.1779 14.3647 73.2066 14.3727 73.2655 14.3727C73.2942 14.3583 73.3324 14.3535 73.3754 14.3615C73.42 14.3695 73.463 14.3647 73.5076 14.3504C73.6095 14.3217 73.7098 14.3105 73.8054 14.3169C73.9009 14.3249 73.9997 14.3137 74.1032 14.2835C74.4854 14.1656 74.8166 14.0159 75.0969 13.8312C75.3756 13.6481 75.6113 13.4092 75.8024 13.1146C75.8757 12.9967 75.9425 12.8725 76.0015 12.7387C76.0604 12.6066 76.1193 12.4744 76.1782 12.3422C76.2069 12.2243 76.2403 12.1097 76.277 11.9998C76.3136 11.8899 76.3837 11.7976 76.4872 11.7243C76.5318 11.6797 76.6194 11.6463 76.7515 11.6256C76.8837 11.6033 77.027 11.5889 77.1815 11.581C77.336 11.573 77.4825 11.5778 77.6226 11.5921C77.7628 11.6065 77.8615 11.6367 77.9204 11.6797C78.008 11.7386 78.0638 11.8262 78.0861 11.9441C78.1084 12.0619 78.1036 12.1861 78.0749 12.3199C78.0017 12.5413 77.9316 12.7499 77.8647 12.9489C77.7978 13.148 77.7134 13.3423 77.6115 13.5334C77.3901 13.9745 77.1146 14.3647 76.7834 14.7023C76.4521 15.0415 76.0508 15.3122 75.581 15.5193C75.4632 15.5782 75.339 15.626 75.2052 15.6626C75.073 15.6992 74.9329 15.7406 74.7864 15.7836C74.6239 15.8425 74.4631 15.876 74.3007 15.8824C74.1382 15.8903 73.9774 15.9078 73.8149 15.9381C73.756 15.9668 73.6971 15.9747 73.6382 15.9604C73.5792 15.9461 73.5203 15.9461 73.4614 15.9604H73.2623C73.1445 15.9604 73.0298 15.9636 72.9199 15.9715C72.8101 15.9779 72.7097 15.9684 72.6221 15.9381H72.5123L71.9819 15.8712C71.7908 15.8123 71.6061 15.7613 71.4309 15.7167C71.2558 15.6721 71.0854 15.6132 70.9229 15.54C70.3926 15.3043 69.9547 15.0256 69.6091 14.7007C69.2635 14.3774 68.9434 13.9809 68.6488 13.5095C68.5756 13.3917 68.5087 13.2595 68.4498 13.113C68.3908 12.9665 68.3319 12.8184 68.273 12.6718C68.1997 12.5094 68.1472 12.3406 68.1185 12.1638C68.0883 11.9871 68.0516 11.8103 68.0086 11.6335C67.9943 11.5746 67.9863 11.5157 67.9863 11.4568C67.9863 11.3978 67.9784 11.3389 67.964 11.28C67.9338 11.1924 67.9226 11.0968 67.9306 10.9933C67.9386 10.8914 67.9274 10.7943 67.8971 10.7067V10.4853C67.8828 10.4121 67.8749 10.3086 67.8749 10.1764C67.8749 10.0442 67.8828 9.94068 67.8971 9.86743C67.9115 9.79417 67.9163 9.72728 67.9083 9.66836C67.9003 9.60944 67.9051 9.55051 67.9194 9.49159C67.9481 9.38967 67.9593 9.28616 67.9529 9.18264C67.9449 9.07913 67.9561 8.98358 67.9863 8.89599C68.0453 8.64597 68.0962 8.39594 68.1408 8.14592C68.1854 7.89589 68.2507 7.6602 68.3399 7.44043C68.6488 6.67602 69.0246 6.05813 69.4658 5.58674C69.9069 5.11536 70.5105 4.72679 71.2749 4.41784C71.4373 4.34458 71.6125 4.29362 71.8052 4.26336C71.9963 4.2347 72.1953 4.19648 72.4008 4.15348C72.5027 4.13915 72.6062 4.128 72.7097 4.12004C72.8132 4.11208 72.9231 4.10093 73.041 4.08659L73.0458 4.085Z" fill="url(#paint6_linear_2_107)"/>
<path d="M89.6621 9.57917C89.6907 9.72568 89.6955 9.89131 89.6732 10.076C89.6509 10.2608 89.6031 10.3882 89.5299 10.4614C89.4566 10.5203 89.3499 10.5602 89.2098 10.5825C89.0696 10.6048 88.912 10.6159 88.7352 10.6159C88.5584 10.6159 88.3817 10.6127 88.2049 10.6048C88.0281 10.5984 87.8737 10.5936 87.7415 10.5936H82.0928C81.975 10.5936 81.8571 10.5968 81.7393 10.6048C81.6214 10.6127 81.5259 10.6382 81.4526 10.6828C81.3937 10.713 81.3348 10.7704 81.2759 10.8596C81.2456 10.9041 81.2169 10.9663 81.1883 11.0475C81.158 11.1287 81.158 11.2051 81.1883 11.28C81.2026 11.3532 81.2106 11.4201 81.2106 11.479C81.2106 11.538 81.2185 11.5969 81.2329 11.6558C81.2615 11.7737 81.2918 11.8947 81.3205 12.0205C81.3491 12.1463 81.3937 12.2673 81.4526 12.3852C81.7902 13.1799 82.3492 13.7468 83.1296 14.0844C83.2171 14.129 83.3127 14.1656 83.4162 14.1943C83.5197 14.2245 83.6216 14.2532 83.7252 14.2819C83.7697 14.2962 83.843 14.3042 83.9465 14.3042C84.1519 14.3631 84.4243 14.3918 84.7635 14.3918C85.1027 14.3918 85.3734 14.3631 85.5804 14.3042C85.7859 14.2452 85.9738 14.1831 86.1426 14.1162C86.3114 14.0494 86.4691 13.965 86.6172 13.863C86.7796 13.7611 86.9182 13.6385 87.036 13.4984C87.1538 13.3582 87.2574 13.2085 87.3449 13.0461C87.4325 12.8996 87.5106 12.7451 87.5774 12.5827C87.6443 12.4202 87.7574 12.304 87.9198 12.2291C87.9788 12.2005 88.0743 12.1782 88.2065 12.1622C88.3387 12.1479 88.4708 12.1447 88.603 12.1511C88.7352 12.159 88.861 12.1702 88.9789 12.1845C89.0967 12.1989 89.1779 12.2291 89.2209 12.2721C89.3674 12.3756 89.4041 12.5444 89.3308 12.7801C89.213 13.1767 89.0585 13.5302 88.8674 13.8392C88.5728 14.3105 88.2383 14.6959 87.8641 14.9985C87.4883 15.2995 87.0153 15.5463 86.4404 15.7374C86.2939 15.7964 86.1458 15.8362 85.9993 15.8585C85.8528 15.8808 85.6983 15.9062 85.5358 15.9365C85.4626 15.9508 85.3925 15.9588 85.3256 15.9588C85.2588 15.9588 85.1903 15.9652 85.1154 15.9811H84.8941C84.8208 15.9954 84.7364 16.0034 84.6408 16.0034C84.5453 16.0034 84.4673 15.9954 84.4099 15.9811H84.2109C84.1376 15.9668 84.0707 15.9588 84.0118 15.9588C83.9529 15.9588 83.894 15.9508 83.835 15.9365C83.7618 15.9222 83.6806 15.911 83.593 15.9031C83.5054 15.8951 83.4242 15.8839 83.3509 15.8696C83.2187 15.8393 83.0866 15.8075 82.9544 15.7709C82.8222 15.7342 82.6964 15.6928 82.5785 15.6498C82.5196 15.6212 82.4687 15.6021 82.4241 15.5941C82.3795 15.5877 82.3285 15.5686 82.2696 15.5384C82.0482 15.4349 81.8141 15.3106 81.5641 15.1625C81.1373 14.8838 80.7726 14.5415 80.4716 14.137C80.1707 13.7325 79.9159 13.2802 79.7104 12.7801C79.6372 12.6177 79.5814 12.4489 79.5448 12.2721C79.5082 12.0953 79.4604 11.9186 79.4015 11.7418C79.3871 11.6829 79.3792 11.6319 79.3792 11.5873C79.3792 11.5427 79.3712 11.4838 79.3569 11.4106C79.3266 11.2927 79.3043 11.1685 79.29 11.0347C79.2757 10.9026 79.2534 10.7704 79.2231 10.6382V10.3292C79.2088 10.2703 79.1976 10.1859 79.1897 10.076C79.1817 9.96615 79.1865 9.87379 79.2008 9.80053V9.55847C79.2295 9.48521 79.2406 9.40718 79.2343 9.32596C79.2263 9.24474 79.2311 9.1683 79.2454 9.09346C79.3043 8.85776 79.3521 8.62207 79.3887 8.38797C79.4254 8.15228 79.4875 7.93251 79.5767 7.72548C79.6499 7.56305 79.72 7.39902 79.7869 7.22862C79.8538 7.05981 79.9302 6.89419 80.0194 6.73175C80.3427 6.21737 80.7105 5.77147 81.123 5.39723C81.5339 5.02139 82.0419 4.70926 82.6454 4.45924C82.8222 4.38598 83.0022 4.33024 83.1853 4.29361C83.3684 4.25699 83.5643 4.21558 83.7697 4.17258C83.843 4.15825 83.9099 4.1471 83.9688 4.13914C84.0277 4.13118 84.093 4.12799 84.1679 4.12799C84.1965 4.11366 84.2348 4.11366 84.2778 4.12799C84.3224 4.14233 84.359 4.13596 84.3876 4.1057C85.0055 4.09137 85.5422 4.15347 85.9993 4.29361C86.4547 4.43376 86.8672 4.62167 87.2351 4.85577C87.3083 4.88603 87.3672 4.92584 87.4118 4.9768C87.4564 5.02776 87.5074 5.06917 87.5663 5.09783C87.6841 5.18542 87.8052 5.28894 87.931 5.40678C88.0552 5.52463 88.1635 5.64247 88.2511 5.76032C88.4868 6.06927 88.6843 6.36388 88.8467 6.64257C88.9502 6.80501 89.0298 6.98178 89.0887 7.17288C89.1477 7.36398 89.213 7.55509 89.2878 7.74619C89.3611 7.93729 89.4168 8.13635 89.4534 8.34179C89.4901 8.54722 89.5378 8.75425 89.5968 8.95968C89.6111 9.0632 89.6222 9.16512 89.6302 9.26863C89.6366 9.37215 89.6477 9.47407 89.6636 9.57758L89.6621 9.57917ZM87.5217 8.8291C87.5663 8.77017 87.6029 8.69373 87.6316 8.59659C87.6603 8.50104 87.6603 8.4023 87.6316 8.29879C87.544 7.97551 87.4182 7.67293 87.2558 7.39424C87.0503 7.05663 86.821 6.76838 86.571 6.53428C86.321 6.29859 85.9977 6.10112 85.5995 5.93868C85.496 5.91002 85.3941 5.88294 85.2906 5.86224C85.1871 5.83995 85.0772 5.81447 84.9594 5.78421C84.8415 5.75554 84.7173 5.73962 84.5835 5.73962H84.2077C84.1631 5.76988 84.1121 5.78102 84.0532 5.77306C83.9943 5.76669 83.9433 5.76988 83.8987 5.78421C83.7809 5.81447 83.6662 5.83995 83.5563 5.86224C83.4465 5.88454 83.3398 5.91002 83.2362 5.93868C82.8095 6.11545 82.4671 6.33681 82.2107 6.60117C81.9527 6.86553 81.7218 7.19677 81.5147 7.5949C81.4702 7.66815 81.4272 7.76052 81.3826 7.8704C81.338 7.98029 81.3014 8.10291 81.2727 8.23509C81.2424 8.36727 81.2361 8.49308 81.2504 8.61092C81.2647 8.72877 81.3173 8.81636 81.4049 8.87528C81.5227 8.96287 81.725 9.00427 82.0116 8.99631C82.2983 8.98835 82.5451 8.98516 82.7505 8.98516H86.1044C86.3257 8.98516 86.5901 8.98835 86.899 8.99631C87.208 9.00427 87.4134 8.94854 87.5169 8.83069L87.5217 8.8291Z" fill="url(#paint7_linear_2_107)"/>
<defs>
<linearGradient id="paint0_linear_2_107" x1="0.310801" y1="8.00099" x2="89.6875" y2="8.00099" gradientUnits="userSpaceOnUse">
<stop offset="0.01" stop-color="#FF9D3F"/>
<stop offset="0.31" stop-color="#F46772"/>
<stop offset="0.76" stop-color="#AF33E4"/>
<stop offset="1" stop-color="#2F70E4"/>
</linearGradient>
<linearGradient id="paint1_linear_2_107" x1="0.31079" y1="8.00099" x2="89.6875" y2="8.00099" gradientUnits="userSpaceOnUse">
<stop offset="0.01" stop-color="#FF9D3F"/>
<stop offset="0.31" stop-color="#F46772"/>
<stop offset="0.76" stop-color="#AF33E4"/>
<stop offset="1" stop-color="#2F70E4"/>
</linearGradient>
<linearGradient id="paint2_linear_2_107" x1="0.310798" y1="8.00099" x2="89.6875" y2="8.00099" gradientUnits="userSpaceOnUse">
<stop offset="0.01" stop-color="#FF9D3F"/>
<stop offset="0.31" stop-color="#F46772"/>
<stop offset="0.76" stop-color="#AF33E4"/>
<stop offset="1" stop-color="#2F70E4"/>
</linearGradient>
<linearGradient id="paint3_linear_2_107" x1="0.31088" y1="8.00099" x2="89.6874" y2="8.00099" gradientUnits="userSpaceOnUse">
<stop offset="0.01" stop-color="#FF9D3F"/>
<stop offset="0.31" stop-color="#F46772"/>
<stop offset="0.76" stop-color="#AF33E4"/>
<stop offset="1" stop-color="#2F70E4"/>
</linearGradient>
<linearGradient id="paint4_linear_2_107" x1="0.310793" y1="8.00099" x2="89.6875" y2="8.00099" gradientUnits="userSpaceOnUse">
<stop offset="0.01" stop-color="#FF9D3F"/>
<stop offset="0.31" stop-color="#F46772"/>
<stop offset="0.76" stop-color="#AF33E4"/>
<stop offset="1" stop-color="#2F70E4"/>
</linearGradient>
<linearGradient id="paint5_linear_2_107" x1="0.310787" y1="8.001" x2="89.6875" y2="8.001" gradientUnits="userSpaceOnUse">
<stop offset="0.01" stop-color="#FF9D3F"/>
<stop offset="0.31" stop-color="#F46772"/>
<stop offset="0.76" stop-color="#AF33E4"/>
<stop offset="1" stop-color="#2F70E4"/>
</linearGradient>
<linearGradient id="paint6_linear_2_107" x1="0.310808" y1="8.001" x2="89.6875" y2="8.001" gradientUnits="userSpaceOnUse">
<stop offset="0.01" stop-color="#FF9D3F"/>
<stop offset="0.31" stop-color="#F46772"/>
<stop offset="0.76" stop-color="#AF33E4"/>
<stop offset="1" stop-color="#2F70E4"/>
</linearGradient>
<linearGradient id="paint7_linear_2_107" x1="0.310791" y1="8.00099" x2="89.6875" y2="8.00099" gradientUnits="userSpaceOnUse">
<stop offset="0.01" stop-color="#FF9D3F"/>
<stop offset="0.31" stop-color="#F46772"/>
<stop offset="0.76" stop-color="#AF33E4"/>
<stop offset="1" stop-color="#2F70E4"/>
</linearGradient>
</defs>
</svg>
